<?xml version="1.0" encoding="UTF-8" standalone="no"?>
<svg width="104px" height="97px" viewBox="0 0 104 97" version="1.1" xmlns="http://www.w3.org/2000/svg" xmlns:xlink="http://www.w3.org/1999/xlink" xmlns:sketch="http://www.bohemiancoding.com/sketch/ns">
    <!-- Generator: Sketch 3.3.2 (12043) - http://www.bohemiancoding.com/sketch -->
    <title>g218</title>
    <desc>Created with Sketch.</desc>
    <defs></defs>
    <g id="Page-1" stroke="none" stroke-width="1" fill="none" fill-rule="evenodd" sketch:type="MSPage">
        <g id="g218" sketch:type="MSLayerGroup" transform="translate(1.000000, 2.000000)" stroke="#1A1718" stroke-width="4" stroke-linejoin="round">
            <path d="M50.7,17.096 C54.738,7.53 63.956,0.846 74.682,0.846 C89.128,0.846 99.532,13.204 100.84,27.932 C100.84,27.932 101.546,31.59 99.992,38.172 C97.876,47.136 92.902,55.1 86.196,61.176 L50.7,92.844 L15.804,61.174 C9.096,55.098 4.124,47.134 2.008,38.17 C0.454,31.586 1.16,27.93 1.16,27.93 C2.468,13.202 12.872,0.844 27.318,0.844 C38.044,0.844 46.664,7.53 50.7,17.096 L50.7,17.096 Z" id="Path" sketch:type="MSShapeGroup"></path>
            <path d="M13,31 C13,21.05 21.05,13 31,13" id="Stroke-136" stroke-linecap="round" sketch:type="MSShapeGroup"></path>
        </g>
    </g>
</svg>